<svg xmlns="http://www.w3.org/2000/svg" xmlns:xlink="http://www.w3.org/1999/xlink" width="2000" zoomAndPan="magnify" viewBox="0 0 1500 1499.999933" height="2000" preserveAspectRatio="xMidYMid meet" version="1.0"><defs><clipPath id="5219fe73e4"><path d="M 65.625 0 L 1434.375 0 L 1434.375 1500 L 65.625 1500 Z M 65.625 0 " clip-rule="nonzero"/></clipPath></defs><g clip-path="url(#5219fe73e4)"><path fill="#4b7b4c" d="M 1102.082031 739.320312 L 1289.984375 922.027344 L 1289.984375 1076.214844 L 1434.242188 826.339844 L 1151.007812 543.105469 L 1151.007812 690.394531 Z M 397.699219 739.320312 L 209.796875 922.027344 L 209.796875 1076.214844 L 65.535156 826.339844 L 348.769531 543.105469 L 348.769531 690.394531 Z M 749.890625 763.066406 L 635.941406 763.066406 L 635.941406 716.394531 L 614.03125 754.378906 L 647.128906 811.683594 L 718.980469 853.179688 L 718.980469 924.039062 L 611.445312 986.121094 L 527.675781 902.351562 L 527.675781 812.613281 L 555.246094 764.835938 L 512.484375 780.597656 L 400.75 668.882812 L 400.75 551.332031 L 422.769531 473.464844 L 466.5 498.710938 L 466.5 536.894531 L 516.796875 587.191406 L 609.058594 604.589844 L 623.871094 592.828125 L 646.488281 698.929688 L 675.160156 510.871094 L 641.710938 568.820312 L 430.332031 446.777344 L 455.027344 359.492188 L 565.082031 249.414062 L 678.476562 362.808594 L 716.105469 362.808594 L 749.890625 409.902344 L 783.671875 362.808594 L 821.300781 362.808594 L 934.695312 249.414062 L 1044.753906 359.492188 L 1069.449219 446.777344 L 858.066406 568.820312 L 824.617188 510.871094 L 853.292969 698.929688 L 875.910156 592.828125 L 890.722656 604.589844 L 982.980469 587.191406 L 1033.277344 536.894531 L 1033.277344 498.710938 L 1077.011719 473.464844 L 1099.03125 551.332031 L 1099.03125 668.882812 L 987.292969 780.597656 L 944.535156 764.835938 L 972.105469 812.613281 L 972.105469 902.351562 L 888.335938 986.121094 L 780.796875 924.039062 L 780.796875 853.179688 L 852.652344 811.683594 L 885.746094 754.378906 L 863.835938 716.394531 L 863.835938 763.066406 Z M 749.890625 966.199219 L 602.890625 1051.074219 L 602.890625 1111.5 L 749.890625 1196.375 L 896.890625 1111.5 L 896.890625 1051.074219 Z M 749.890625 316.203125 L 705.382812 316.203125 L 441.605469 52.449219 L 532.382812 0.0273438 L 967.394531 0.0273438 L 1058.171875 52.449219 L 794.394531 316.203125 Z M 749.890625 1268.867188 L 550.910156 1153.992188 L 550.910156 1017.273438 L 495.042969 1049.550781 L 495.042969 1305.371094 L 749.890625 1499.972656 L 1004.738281 1305.371094 L 1004.738281 1049.550781 L 948.867188 1017.273438 L 948.867188 1153.992188 Z M 431.988281 773.898438 L 475.699219 817.320312 L 475.699219 923.863281 L 524.402344 972.566406 L 443.066406 1019.550781 L 443.066406 1401.652344 L 261.773438 1220.382812 L 261.773438 944.113281 Z M 528.339844 212.667969 L 482.90625 258.101562 L 422.679688 197.878906 L 336.589844 244.75 L 408.421875 243.402344 L 453.015625 287.992188 L 408.421875 332.585938 L 377.820312 440.542969 L 96.269531 722.097656 L 206.171875 349.367188 L 350.605469 349.367188 L 219.679688 303.515625 L 262.171875 159.367188 L 398.316406 82.648438 Z M 1067.789062 773.898438 L 1024.082031 817.320312 L 1024.082031 923.863281 L 975.375 972.566406 L 1056.714844 1019.550781 L 1056.714844 1401.652344 L 1238.003906 1220.382812 L 1238.003906 944.113281 Z M 971.441406 212.667969 L 1016.875 258.101562 L 1077.097656 197.878906 L 1163.191406 244.75 L 1091.359375 243.402344 L 1046.765625 287.992188 L 1091.359375 332.585938 L 1121.957031 440.542969 L 1403.511719 722.097656 L 1293.609375 349.367188 L 1149.171875 349.367188 L 1280.101562 303.515625 L 1237.609375 159.367188 L 1101.460938 82.648438 Z M 971.441406 212.667969 " fill-opacity="1" fill-rule="evenodd"/></g></svg>
