<svg xmlns="http://www.w3.org/2000/svg" xmlns:xlink="http://www.w3.org/1999/xlink" width="2000" zoomAndPan="magnify" viewBox="0 0 1500 1499.999933" height="2000" preserveAspectRatio="xMidYMid meet" version="1.0"><defs><clipPath id="f91116fe88"><path d="M 374.503906 558 L 529 558 L 529 829 L 374.503906 829 Z M 374.503906 558 " clip-rule="nonzero"/></clipPath><clipPath id="5e131b33ba"><path d="M 961 562 L 1111.007812 562 L 1111.007812 829 L 961 829 Z M 961 562 " clip-rule="nonzero"/></clipPath><clipPath id="5f8c3ebe2b"><path d="M 686 989 L 738 989 L 738 1096.652344 L 686 1096.652344 Z M 686 989 " clip-rule="nonzero"/></clipPath><clipPath id="b8e2c3156a"><path d="M 752 989 L 804 989 L 804 1096.652344 L 752 1096.652344 Z M 752 989 " clip-rule="nonzero"/></clipPath><clipPath id="a4b900773a"><path d="M 713 358.503906 L 768 358.503906 L 768 420 L 713 420 Z M 713 358.503906 " clip-rule="nonzero"/></clipPath></defs><rect x="-150" width="1800" fill="#ffffff" y="-149.999993" height="1799.99992" fill-opacity="1"/><rect x="-150" width="1800" fill="#ffffff" y="-149.999993" height="1799.99992" fill-opacity="1"/><path fill="#09250f" d="M 533.332031 496.363281 C 497.550781 503.941406 462.339844 513.996094 427.953125 526.457031 C 416.75 544.542969 407.113281 563.546875 399.140625 583.265625 C 442.070312 557.664062 488.226562 537.910156 536.386719 524.53125 C 543.359375 512.640625 551.421875 501.421875 560.472656 491.019531 C 564.679688 486.144531 569.160156 481.394531 573.738281 476.703125 C 545.625 469.296875 506.675781 464.4375 464.644531 475.433594 C 458.914062 482.371094 453.476562 489.425781 448.21875 496.558594 C 497.34375 490.789062 533.332031 496.363281 533.332031 496.363281 Z M 533.332031 496.363281 " fill-opacity="1" fill-rule="nonzero"/><path fill="#09250f" d="M 692.414062 360.179688 C 665.386719 362.011719 638.472656 365.195312 611.765625 369.722656 C 640.996094 393.34375 709.625 446.953125 742.753906 457.144531 C 720.253906 428.128906 703.199219 395.277344 692.414062 360.179688 Z M 692.414062 360.179688 " fill-opacity="1" fill-rule="nonzero"/><path fill="#09250f" d="M 634.257812 879.097656 C 634.257812 879.097656 564.183594 913.152344 547.34375 1019.917969 C 568.621094 1034.640625 591.375 1047.109375 615.234375 1057.121094 C 606.046875 1023.011719 589.539062 937.578125 634.257812 879.097656 Z M 634.257812 879.097656 " fill-opacity="1" fill-rule="nonzero"/><path fill="#09250f" d="M 561.917969 897.730469 C 561.917969 897.730469 588.378906 867.71875 620.167969 849.359375 C 599.9375 831.128906 584.648438 809.058594 581.132812 784.246094 C 571.328125 821.417969 564.898438 859.402344 561.917969 897.730469 Z M 561.917969 897.730469 " fill-opacity="1" fill-rule="nonzero"/><g clip-path="url(#f91116fe88)"><path fill="#09250f" d="M 528.855469 621.3125 C 522.679688 609.082031 519.453125 595.570312 519.441406 581.863281 C 519.523438 574.066406 520.503906 566.304688 522.367188 558.730469 C 464.445312 584.441406 414.148438 624.675781 376.339844 675.53125 C 375.109375 687.636719 374.496094 699.792969 374.503906 711.960938 C 374.503906 716.019531 374.636719 720.074219 374.804688 724.128906 C 414.425781 666.621094 458.988281 634.976562 458.988281 634.976562 C 415.96875 692.644531 392.332031 736.894531 379.46875 766.589844 C 383.238281 787.683594 388.9375 808.390625 396.496094 828.441406 C 417.082031 779.304688 463.15625 682.703125 528.855469 621.3125 Z M 528.855469 621.3125 " fill-opacity="1" fill-rule="nonzero"/></g><path fill="#09250f" d="M 641.570312 914.167969 C 641.570312 914.167969 611.648438 1001.847656 663.324219 1071.992188 L 687.804688 974.078125 C 687.804688 974.078125 652.449219 960.933594 641.570312 914.167969 Z M 641.570312 914.167969 " fill-opacity="1" fill-rule="nonzero"/><path fill="#09250f" d="M 595.949219 455.683594 C 609.9375 443.394531 624.628906 431.964844 639.101562 421.539062 C 623.929688 404.03125 606.816406 388.3125 588.085938 374.683594 C 577.757812 376.972656 567.734375 380.453125 558.210938 385.054688 C 573.980469 392.523438 590.734375 402.664062 601.738281 415.503906 C 601.738281 415.503906 569.640625 406.335938 538.609375 400.429688 C 524.882812 412.398438 511.824219 424.625 499.433594 437.097656 C 532.484375 437.214844 565.21875 443.515625 595.949219 455.683594 Z M 595.949219 455.683594 " fill-opacity="1" fill-rule="nonzero"/><path fill="#09250f" d="M 584.746094 678.117188 C 572.144531 668.5 560.15625 658.105469 548.847656 646.996094 C 508.066406 691.988281 437.199219 785.738281 431.628906 898.945312 C 441.597656 914.769531 452.617188 929.90625 464.613281 944.257812 C 470.679688 862.929688 503.09375 803.480469 503.09375 803.480469 C 488.246094 889.886719 490.027344 945.480469 493.585938 975.480469 C 505.1875 986.871094 517.453125 997.566406 530.316406 1007.515625 C 528.5625 944.777344 529.085938 768.503906 584.746094 678.117188 Z M 584.746094 678.117188 " fill-opacity="1" fill-rule="nonzero"/><path fill="#09250f" d="M 870.160156 852.25 C 899.761719 870.699219 923.59375 897.71875 923.59375 897.71875 C 920.984375 864.953125 915.921875 832.425781 908.453125 800.417969 C 901.441406 819.988281 887.367188 837.449219 870.160156 852.25 Z M 870.160156 852.25 " fill-opacity="1" fill-rule="nonzero"/><path fill="#09250f" d="M 940.46875 651.242188 C 935.941406 655.558594 931.101562 659.925781 926.046875 664.230469 C 918.550781 670.597656 910.796875 676.761719 903.265625 682.332031 C 956.429688 773.875 956.914062 945.742188 955.191406 1007.511719 C 970.378906 995.785156 984.738281 983.023438 998.164062 969.316406 C 1001.214844 938.132812 1001.871094 884.285156 987.988281 803.480469 C 987.988281 803.480469 1018.722656 859.894531 1025.925781 937.972656 C 1035.984375 925.511719 1045.320312 912.480469 1053.878906 898.945312 C 1048.472656 789.203125 981.699219 697.722656 940.46875 651.242188 Z M 940.46875 651.242188 " fill-opacity="1" fill-rule="nonzero"/><path fill="#09250f" d="M 793.09375 360.179688 C 782.308594 395.277344 765.253906 428.128906 742.753906 457.144531 C 775.878906 446.953125 844.511719 393.34375 873.742188 369.71875 C 847.035156 365.191406 820.121094 362.007812 793.09375 360.179688 Z M 793.09375 360.179688 " fill-opacity="1" fill-rule="nonzero"/><path fill="#09250f" d="M 851.242188 879.097656 C 895.960938 937.578125 879.457031 1023.011719 870.273438 1057.121094 C 894.132812 1047.109375 916.882812 1034.640625 938.160156 1019.914062 C 921.324219 913.152344 851.242188 879.097656 851.242188 879.097656 Z M 851.242188 879.097656 " fill-opacity="1" fill-rule="nonzero"/><path fill="#09250f" d="M 797.703125 974.082031 L 822.179688 1071.996094 C 873.859375 1001.855469 843.9375 914.171875 843.9375 914.171875 C 833.058594 960.933594 797.703125 974.082031 797.703125 974.082031 Z M 797.703125 974.082031 " fill-opacity="1" fill-rule="nonzero"/><path fill="#09250f" d="M 849.570312 417.996094 C 864.796875 428.761719 880.378906 440.691406 895.242188 453.570312 C 924.3125 442.773438 955.058594 437.199219 986.070312 437.101562 C 974.011719 424.921875 961.296875 412.992188 947.921875 401.316406 C 918.382812 407.214844 889.347656 415.503906 889.347656 415.503906 C 899.648438 403.488281 914.988281 393.835938 929.84375 386.523438 C 922.574219 382.117188 911.414062 378.152344 897.417969 374.6875 C 879.953125 387.355469 863.910156 401.878906 849.570312 417.996094 Z M 849.570312 417.996094 " fill-opacity="1" fill-rule="nonzero"/><path fill="#09250f" d="M 918.285156 475.085938 C 922.835938 479.695312 927.300781 484.351562 931.507812 489.140625 C 941.953125 500.863281 951.113281 513.671875 958.832031 527.347656 C 1003.507812 540.59375 1046.355469 559.378906 1086.367188 583.265625 C 1077.988281 562.589844 1067.789062 542.699219 1055.878906 523.832031 C 1023.78125 512.621094 991.011719 503.445312 957.757812 496.363281 C 924.503906 489.277344 990.808594 491.238281 1036.796875 495.886719 C 1031.691406 488.988281 1026.421875 482.152344 1020.875 475.433594 C 981.992188 465.269531 945.753906 468.652344 918.285156 475.085938 Z M 918.285156 475.085938 " fill-opacity="1" fill-rule="nonzero"/><g clip-path="url(#5e131b33ba)"><path fill="#09250f" d="M 1110.894531 716.472656 C 1110.914062 714.96875 1111.007812 713.46875 1111.007812 711.960938 C 1111.011719 699.792969 1110.402344 687.628906 1109.171875 675.523438 C 1073.371094 627.375 1026.347656 588.707031 972.1875 562.890625 C 973.449219 569.132812 974.113281 575.484375 974.167969 581.855469 C 974.164062 596.738281 970.386719 611.378906 963.1875 624.402344 C 962.804688 625.085938 962.355469 625.714844 961.949219 626.378906 C 1024.832031 687.917969 1068.984375 780.640625 1089.015625 828.4375 C 1097.683594 805.527344 1103.898438 781.761719 1107.558594 757.542969 C 1093.984375 728.183594 1070.960938 687.054688 1032.101562 634.972656 C 1032.101562 634.976562 1072.734375 663.808594 1110.894531 716.472656 Z M 1110.894531 716.472656 " fill-opacity="1" fill-rule="nonzero"/></g><path fill="#09250f" d="M 778.519531 906.117188 L 796.234375 941.542969 C 829.578125 929.640625 837.9375 888.941406 839.929688 873.636719 C 821.5 883.671875 800.921875 889.113281 779.941406 889.507812 C 779.835938 889.507812 779.730469 889.507812 779.625 889.507812 C 771.742188 889.523438 764.023438 887.289062 757.371094 883.0625 C 752.570312 879.933594 748.457031 875.867188 745.277344 871.101562 C 742.09375 875.863281 737.980469 879.933594 733.183594 883.0625 C 726.445312 887.34375 718.609375 889.578125 710.625 889.5 C 690.261719 889.148438 670.265625 884 652.265625 874.476562 C 654.449219 890.371094 663.09375 929.851562 695.847656 941.542969 L 713.5625 906.117188 C 713.5625 906.117188 710.609375 959.261719 746.035156 979.925781 C 781.472656 959.261719 778.519531 906.117188 778.519531 906.117188 Z M 778.519531 906.117188 " fill-opacity="1" fill-rule="nonzero"/><path fill="#000000" d="M 870.246094 680.722656 C 893.261719 667.574219 936.691406 631.796875 945.871094 614.964844 C 980.257812 551.929688 904.578125 480.769531 836.855469 433.15625 C 836.855469 433.15625 777.445312 482.433594 750.101562 483.449219 C 721.03125 484.511719 652.917969 435.886719 652.917969 435.886719 C 586.230469 483.46875 514.023438 553.125 547.757812 614.964844 C 556.941406 631.792969 600.363281 667.574219 623.378906 680.722656 C 646.394531 693.875 595.109375 716.339844 600.363281 779.363281 C 603.652344 818.824219 659.546875 868.136719 712.152344 868.136719 C 741.933594 868.136719 738.046875 816.457031 728.59375 802.378906 C 718.542969 787.414062 679.273438 769.5 675.988281 753.0625 C 674.535156 745.785156 710.667969 735.566406 746.8125 735.566406 C 782.953125 735.566406 819.097656 745.78125 817.640625 753.0625 C 814.351562 769.5 775.085938 787.414062 765.03125 802.378906 C 755.585938 816.449219 751.699219 868.136719 781.472656 868.136719 C 834.078125 868.136719 889.972656 818.820312 893.261719 779.363281 C 898.515625 716.339844 847.238281 693.875 870.246094 680.722656 Z M 675.890625 665.929688 C 675.890625 665.929688 674.488281 589.902344 655.894531 596.882812 C 637.300781 603.863281 583.800781 601.128906 583.800781 601.128906 C 583.800781 601.128906 592.144531 568.171875 610.746094 563.523438 C 629.351562 558.875 664.511719 561.265625 675.847656 569.535156 C 691.808594 581.160156 675.890625 665.929688 675.890625 665.929688 Z M 837.734375 596.875 C 819.136719 589.894531 817.734375 665.925781 817.734375 665.925781 C 817.734375 665.925781 801.820312 581.152344 817.765625 569.527344 C 829.113281 561.257812 864.273438 558.867188 882.886719 563.519531 C 901.496094 568.171875 909.824219 601.125 909.824219 601.125 C 909.824219 601.125 856.335938 603.855469 837.734375 596.875 Z M 837.734375 596.875 " fill-opacity="1" fill-rule="nonzero"/><g clip-path="url(#5f8c3ebe2b)"><path fill="#09250f" d="M 708.222656 989.789062 L 686.851562 1076.925781 C 686.851562 1076.925781 716.441406 1096.65625 737.816406 1096.65625 L 724.660156 1012.8125 Z M 708.222656 989.789062 " fill-opacity="1" fill-rule="nonzero"/></g><g clip-path="url(#b8e2c3156a)"><path fill="#09250f" d="M 765.769531 1012.804688 L 752.617188 1096.652344 C 773.992188 1096.652344 803.582031 1076.921875 803.582031 1076.921875 L 782.207031 989.785156 Z M 765.769531 1012.804688 " fill-opacity="1" fill-rule="nonzero"/></g><g clip-path="url(#a4b900773a)"><path fill="#09250f" d="M 767.414062 358.503906 L 713.160156 358.503906 C 724.667969 381.519531 744.398438 419.332031 744.398438 419.332031 C 750.972656 407.824219 767.414062 358.503906 767.414062 358.503906 Z M 767.414062 358.503906 " fill-opacity="1" fill-rule="nonzero"/></g></svg>